{
  "accessors": [
    {
      "bufferView": 2,
      "componentType": 5126,
      "count": 1823,
      "max": [
        14.203481674194336,
        14.20559024810791,
        36.66646194458008
      ],
      "min": [
        -14.203483581542969,
        -14.205589294433594,
        -36.66646194458008
      ],
      "type": "VEC3"
    },
    {
      "bufferView": 2,
      "byteOffset": 21876,
      "componentType": 5126,
      "count": 1823,
      "max": [
        1.0,
        1.0,
        1.0
      ],
      "min": [
        -1.0,
        -1.0,
        -1.0
      ],
      "type": "VEC3"
    },
    {
      "bufferView": 3,
      "componentType": 5126,
      "count": 1823,
      "max": [
        1.0,
        1.0,
        0.98624187707901,
        1.0
      ],
      "min": [
        -1.0,
        -1.0,
        -0.9982007741928101,
        -1.0
      ],
      "type": "VEC4"
    },
    {
      "bufferView": 3,
      "byteOffset": 29168,
      "componentType": 5126,
      "count": 1823,
      "max": [
        1.0,
        1.0,
        1.0,
        1.0
      ],
      "min": [
        0.0,
        0.0,
        0.0,
        0.0
      ],
      "type": "VEC4"
    },
    {
      "bufferView": 1,
      "componentType": 5126,
      "count": 1823,
      "max": [
        0.9894284009933472,
        0.9900850057601929
      ],
      "min": [
        0.011890886351466179,
        0.009304370731115341
      ],
      "type": "VEC2"
    },
    {
      "bufferView": 0,
      "componentType": 5125,
      "count": 4755,
      "type": "SCALAR"
    },
    {
      "bufferView": 2,
      "byteOffset": 43752,
      "componentType": 5126,
      "count": 80,
      "max": [
        13.546783447265625,
        13.545807838439941,
        28.853382110595703
      ],
      "min": [
        -13.566667556762695,
        -12.505970001220703,
        -27.334932327270508
      ],
      "type": "VEC3"
    },
    {
      "bufferView": 2,
      "byteOffset": 44712,
      "componentType": 5126,
      "count": 80,
      "max": [
        1.0,
        1.0,
        1.412499983644011e-07
      ],
      "min": [
        -1.0,
        -0.7071070671081543,
        -4.2199812355647737e-07
      ],
      "type": "VEC3"
    },
    {
      "bufferView": 3,
      "byteOffset": 58336,
      "componentType": 5126,
      "count": 80,
      "max": [
        1.0,
        1.0,
        1.0,
        1.0
      ],
      "min": [
        1.0,
        1.0,
        1.0,
        1.0
      ],
      "type": "VEC4"
    },
    {
      "bufferView": 1,
      "byteOffset": 14584,
      "componentType": 5126,
      "count": 80,
      "max": [
        0.9897307753562927,
        0.9832033514976501
      ],
      "min": [
        0.010269257239997387,
        0.012857361696660519
      ],
      "type": "VEC2"
    },
    {
      "bufferView": 0,
      "byteOffset": 19020,
      "componentType": 5125,
      "count": 120,
      "type": "SCALAR"
    },
    {
      "bufferView": 2,
      "byteOffset": 45672,
      "componentType": 5126,
      "count": 5602,
      "max": [
        12.467267036437988,
        12.481180191040039,
        13.89126968383789
      ],
      "min": [
        4.311375617980957,
        4.325287818908691,
        -3.791958808898926
      ],
      "type": "VEC3"
    },
    {
      "bufferView": 2,
      "byteOffset": 112896,
      "componentType": 5126,
      "count": 5602,
      "max": [
        0.9956958889961243,
        0.9998908042907715,
        1.0
      ],
      "min": [
        -0.9999895691871643,
        -0.9999955892562866,
        -1.0
      ],
      "type": "VEC3"
    },
    {
      "bufferView": 3,
      "byteOffset": 59616,
      "componentType": 5126,
      "count": 5602,
      "max": [
        1.0,
        0.9988089203834534,
        0.9999989867210388,
        1.0
      ],
      "min": [
        -1.0,
        -0.9999892711639404,
        -0.9999486804008484,
        -1.0
      ],
      "type": "VEC4"
    },
    {
      "bufferView": 3,
      "byteOffset": 149248,
      "componentType": 5126,
      "count": 5602,
      "max": [
        1.0,
        1.0,
        1.0,
        1.0
      ],
      "min": [
        1.0,
        1.0,
        1.0,
        1.0
      ],
      "type": "VEC4"
    },
    {
      "bufferView": 1,
      "byteOffset": 15224,
      "componentType": 5126,
      "count": 5602,
      "max": [
        0.9863886833190918,
        0.964691698551178
      ],
      "min": [
        0.009125867858529091,
        0.02426401525735855
      ],
      "type": "VEC2"
    },
    {
      "bufferView": 0,
      "byteOffset": 19500,
      "componentType": 5125,
      "count": 18030,
      "type": "SCALAR"
    },
    {
      "bufferView": 2,
      "byteOffset": 180120,
      "componentType": 5126,
      "count": 767,
      "max": [
        7.599583625793457,
        10.329190254211426,
        28.853443145751953
      ],
      "min": [
        -7.619467735290527,
        -7.620443344116211,
        -7.181339263916016
      ],
      "type": "VEC3"
    },
    {
      "bufferView": 2,
      "byteOffset": 189324,
      "componentType": 5126,
      "count": 767,
      "max": [
        1.0,
        1.0,
        0.9991620779037476
      ],
      "min": [
        -1.0,
        -1.0,
        -1.0
      ],
      "type": "VEC3"
    },
    {
      "bufferView": 3,
      "byteOffset": 238880,
      "componentType": 5126,
      "count": 767,
      "max": [
        1.0,
        0.9998373985290527,
        1.0,
        1.0
      ],
      "min": [
        -0.9984374046325684,
        -1.0,
        -0.9999998807907104,
        1.0
      ],
      "type": "VEC4"
    },
    {
      "bufferView": 3,
      "byteOffset": 251152,
      "componentType": 5126,
      "count": 767,
      "max": [
        1.0,
        1.0,
        1.0,
        1.0
      ],
      "min": [
        1.0,
        1.0,
        1.0,
        1.0
      ],
      "type": "VEC4"
    },
    {
      "bufferView": 1,
      "byteOffset": 60040,
      "componentType": 5126,
      "count": 767,
      "max": [
        0.966548502445221,
        3.0920262336730957
      ],
      "min": [
        0.0170426182448864,
        -3.0920262336730957
      ],
      "type": "VEC2"
    },
    {
      "bufferView": 0,
      "byteOffset": 91620,
      "componentType": 5125,
      "count": 3966,
      "type": "SCALAR"
    }
  ],
  "asset": {
    "extras": {
      "author": "YJ_ (https://sketchfab.com/YJ_)",
      "license": "CC-BY-4.0 (http://creativecommons.org/licenses/by/4.0/)",
      "source": "https://sketchfab.com/3d-models/phone-booth-f52615a329da4908a42f5fae1d0f37d1",
      "title": "Phone booth"
    },
    "generator": "Sketchfab-12.65.0",
    "version": "2.0"
  },
  "bufferViews": [
    {
      "buffer": 0,
      "byteLength": 107484,
      "name": "floatBufferViews",
      "target": 34963
    },
    {
      "buffer": 0,
      "byteLength": 66176,
      "byteOffset": 107484,
      "byteStride": 8,
      "name": "floatBufferViews",
      "target": 34962
    },
    {
      "buffer": 0,
      "byteLength": 198528,
      "byteOffset": 173660,
      "byteStride": 12,
      "name": "floatBufferViews",
      "target": 34962
    },
    {
      "buffer": 0,
      "byteLength": 263424,
      "byteOffset": 372188,
      "byteStride": 16,
      "name": "floatBufferViews",
      "target": 34962
    }
  ],
  "buffers": [
    {
      "byteLength": 635612,
      "uri": "scene.bin"
    }
  ],
  "images": [
    {
      "uri": "textures/box_tex_baseColor.png"
    },
    {
      "uri": "textures/box_tex_metallicRoughness.png"
    },
    {
      "uri": "textures/box_tex_emissive.png"
    },
    {
      "uri": "textures/box_tex_normal.png"
    },
    {
      "uri": "textures/glass_tex_baseColor.png"
    },
    {
      "uri": "textures/glass_tex_metallicRoughness.png"
    },
    {
      "uri": "textures/phone_tex_baseColor.png"
    },
    {
      "uri": "textures/phone_tex_metallicRoughness.png"
    },
    {
      "uri": "textures/phone_tex_normal.png"
    },
    {
      "uri": "textures/line_tex_baseColor.png"
    },
    {
      "uri": "textures/line_tex_metallicRoughness.png"
    },
    {
      "uri": "textures/line_tex_emissive.png"
    },
    {
      "uri": "textures/line_tex_normal.png"
    }
  ],
  "materials": [
    {
      "doubleSided": true,
      "emissiveFactor": [
        1.0,
        1.0,
        1.0
      ],
      "emissiveTexture": {
        "index": 2
      },
      "name": "box_tex",
      "normalTexture": {
        "index": 3
      },
      "occlusionTexture": {
        "index": 1
      },
      "pbrMetallicRoughness": {
        "baseColorTexture": {
          "index": 0
        },
        "metallicRoughnessTexture": {
          "index": 1
        }
      }
    },
    {
      "alphaMode": "BLEND",
      "doubleSided": true,
      "name": "glass_tex",
      "pbrMetallicRoughness": {
        "baseColorFactor": [
          1.0,
          1.0,
          1.0,
          0.2692376678887815
        ],
        "baseColorTexture": {
          "index": 4
        },
        "metallicFactor": 0.0,
        "metallicRoughnessTexture": {
          "index": 5
        }
      }
    },
    {
      "doubleSided": true,
      "name": "phone_tex",
      "normalTexture": {
        "index": 8
      },
      "occlusionTexture": {
        "index": 7
      },
      "pbrMetallicRoughness": {
        "baseColorTexture": {
          "index": 6
        },
        "metallicRoughnessTexture": {
          "index": 7
        }
      }
    },
    {
      "doubleSided": true,
      "emissiveFactor": [
        1.0,
        1.0,
        1.0
      ],
      "emissiveTexture": {
        "index": 11
      },
      "name": "line_tex",
      "normalTexture": {
        "index": 12
      },
      "occlusionTexture": {
        "index": 10
      },
      "pbrMetallicRoughness": {
        "baseColorTexture": {
          "index": 9
        },
        "metallicRoughnessTexture": {
          "index": 10
        }
      }
    }
  ],
  "meshes": [
    {
      "name": "bolt_low001_box_tex_0",
      "primitives": [
        {
          "attributes": {
            "COLOR_0": 3,
            "NORMAL": 1,
            "POSITION": 0,
            "TANGENT": 2,
            "TEXCOORD_0": 4
          },
          "indices": 5,
          "material": 0,
          "mode": 4
        }
      ]
    },
    {
      "name": "bolt_low001_glass_tex_0",
      "primitives": [
        {
          "attributes": {
            "COLOR_0": 8,
            "NORMAL": 7,
            "POSITION": 6,
            "TEXCOORD_0": 9
          },
          "indices": 10,
          "material": 1,
          "mode": 4
        }
      ]
    },
    {
      "name": "bolt_low001_phone_tex_0",
      "primitives": [
        {
          "attributes": {
            "COLOR_0": 14,
            "NORMAL": 12,
            "POSITION": 11,
            "TANGENT": 13,
            "TEXCOORD_0": 15
          },
          "indices": 16,
          "material": 2,
          "mode": 4
        }
      ]
    },
    {
      "name": "bolt_low001_line_tex_0",
      "primitives": [
        {
          "attributes": {
            "COLOR_0": 20,
            "NORMAL": 18,
            "POSITION": 17,
            "TANGENT": 19,
            "TEXCOORD_0": 21
          },
          "indices": 22,
          "material": 3,
          "mode": 4
        }
      ]
    }
  ],
  "nodes": [
    {
      "children": [
        1
      ],
      "matrix": [
        1.0,
        0.0,
        0.0,
        0.0,
        0.0,
        2.220446049250313e-16,
        -1.0,
        0.0,
        0.0,
        1.0,
        2.220446049250313e-16,
        0.0,
        0.0,
        0.0,
        0.0,
        1.0
      ],
      "name": "Sketchfab_model"
    },
    {
      "children": [
        2
      ],
      "matrix": [
        1.0,
        0.0,
        0.0,
        0.0,
        0.0,
        0.0,
        1.0,
        0.0,
        0.0,
        -1.0,
        0.0,
        0.0,
        0.0,
        0.0,
        0.0,
        1.0
      ],
      "name": "ab1c31ecbedb4eb286b966188815a2a1.fbx"
    },
    {
      "children": [
        3
      ],
      "name": "RootNode"
    },
    {
      "children": [
        4
      ],
      "matrix": [
        1.0,
        0.0,
        0.0,
        0.0,
        0.0,
        2.220446049250313e-16,
        -1.0,
        0.0,
        0.0,
        1.0,
        2.220446049250313e-16,
        0.0,
        0.0,
        0.0,
        0.0,
        1.0
      ],
      "name": "bolt_low001"
    },
    {
      "children": [
        5,
        6,
        7,
        8
      ],
      "matrix": [
        1.0,
        0.0,
        -0.0,
        0.0,
        0.0,
        1.0,
        0.0,
        0.0,
        0.0,
        0.0,
        1.0,
        0.0,
        0.0,
        0.0,
        36.4726104736328,
        1.0
      ],
      "name": "Object_4"
    },
    {
      "mesh": 0,
      "name": "bolt_low001_box_tex_0"
    },
    {
      "mesh": 1,
      "name": "bolt_low001_glass_tex_0"
    },
    {
      "mesh": 2,
      "name": "bolt_low001_phone_tex_0"
    },
    {
      "mesh": 3,
      "name": "bolt_low001_line_tex_0"
    }
  ],
  "samplers": [
    {
      "magFilter": 9729,
      "minFilter": 9987,
      "wrapS": 10497,
      "wrapT": 10497
    }
  ],
  "scene": 0,
  "scenes": [
    {
      "name": "Sketchfab_Scene",
      "nodes": [
        0
      ]
    }
  ],
  "textures": [
    {
      "sampler": 0,
      "source": 0
    },
    {
      "sampler": 0,
      "source": 1
    },
    {
      "sampler": 0,
      "source": 2
    },
    {
      "sampler": 0,
      "source": 3
    },
    {
      "sampler": 0,
      "source": 4
    },
    {
      "sampler": 0,
      "source": 5
    },
    {
      "sampler": 0,
      "source": 6
    },
    {
      "sampler": 0,
      "source": 7
    },
    {
      "sampler": 0,
      "source": 8
    },
    {
      "sampler": 0,
      "source": 9
    },
    {
      "sampler": 0,
      "source": 10
    },
    {
      "sampler": 0,
      "source": 11
    },
    {
      "sampler": 0,
      "source": 12
    }
  ]
}
